#!OML:ASF H:\MichaelJackson\Top Level 1\Subject 1\Session 1\male.ASF
:FULLY-SPECIFIED
:DEGREES
198
root 4.80713 16.7661 -25.4722 8.82834 2.85996 1.02474
lowerback -6.23167 -0.131255 -4.50712
upperback -0.985077 0.0902546 1.35943
thorax 2.46821 0.00261431 3.94987
lowerneck -9.60675 2.32982 -2.2831
upperneck 4.12415 3.37688 0.263428
head 2.96347 1.64682 0.670126
rclavicle 6.21202e-016 1.63003e-014
rhumerus -38.5106 2.97211 -87.9468
rradius 28.4746
rwrist 18.8264
rhand -24.8805 -23.0122
rfingers 7.12502
rthumb 1.62694 -52.9858
lclavicle 6.21202e-016 1.63003e-014
lhumerus -39.374 0.830708 95.1542
lradius 35.3022
lwrist 4.80366
lhand -9.39838 7.30619
lfingers 7.12502
lthumb 16.5629 36.6193
rfemur -19.2085 2.71665 19.243
rtibia 36.9716
rfoot -23.9567 -15.8757
rtoes 20.4041
lfemur -18.9864 2.4592 -22.318
ltibia 36.7223
lfoot -25.6675 -2.30797
ltoes 13.4996
199
root 4.81238 16.7702 -25.474 8.88003 2.69755 1.06256
lowerback -6.39423 -0.099397 -4.51351
upperback -1.00196 0.140484 1.3488
thorax 2.53653 0.0262457 3.94756
lowerneck -9.67377 2.40773 -2.23262
upperneck 4.30131 3.48267 0.189478
head 3.03763 1.69533 0.646752
rclavicle -6.31141e-015 4.37326e-015
rhumerus -38.6413 2.93074 -87.9772
rradius 28.4754
rwrist 18.6562
rhand -25.007 -22.9228
rfingers 7.12502
rthumb 1.50485 -52.8973
lclavicle -6.31141e-015 4.37326e-015
lhumerus -39.388 0.724982 95.2018
lradius 35.3819
lwrist 4.8277
lhand -9.29047 7.32191
lfingers 7.12502
lthumb 16.6668 36.6264
rfemur -19.283 2.76581 19.1609
rtibia 36.9427
rfoot -23.8554 -15.8479
rtoes 20.1036
lfemur -18.8398 2.26309 -22.4046
ltibia 36.4073
lfoot -25.6082 -1.94435
ltoes 13.5489
200
root 4.8178 16.7735 -25.4757 8.92375 2.49891 1.08985
lowerback -6.54126 -0.0571755 -4.50737
upperback -1.01975 0.202878 1.34085
thorax 2.594 0.0563299 3.9421
lowerneck -9.748 2.48779 -2.18586
upperneck 4.4824 3.59258 0.110575
head 3.11489 1.74545 0.622933
rclavicle 5.54112e-015 1.82882e-014
rhumerus -38.7717 2.94741 -88.0273
rradius 28.4936
rwrist 18.5002
rhand -25.075 -22.8237
rfingers 7.12502
rthumb 1.43918 -52.7986
lclavicle 5.54112e-015 1.82882e-014
lhumerus -39.4204 0.630607 95.2431
lradius 35.5124
lwrist 4.8789
lhand -9.24489 7.27531
lfingers 7.12502
lthumb 16.7107 36.5761
rfemur -19.3562 2.79796 19.0857
rtibia 36.922
rfoot -23.7614 -15.7684
rtoes 19.802
lfemur -18.6994 2.10433 -22.4798
ltibia 36.1261
lfoot -25.5578 -1.60552
ltoes 13.6871
201
root 4.82332 16.7752 -25.4775 8.96101 2.27851 1.10317
lowerback -6.67676 -0.00921332 -4.48872
upperback -1.0363 0.271309 1.33951
thorax 2.64573 0.0896267 3.9371
lowerneck -9.8109 2.56941 -2.13525
upperneck 4.64509 3.7049 0.0165121
head 3.18437 1.79632 0.593243
rclavicle 4.47266e-016 9.14409e-015
rhumerus -38.8901 3.0058 -88.0821
rradius 28.5236
rwrist 18.402
rhand -25.0534 -22.7305
rfingers 7.12502
rthumb 1.46 -52.7052
lclavicle 4.47266e-016 9.14409e-015
lhumerus -39.4651 0.55194 95.2809
lradius 35.6862
lwrist 4.95965
lhand -9.26156 7.19297
lfingers 7.12502
lthumb 16.6946 36.4951
rfemur -19.4325 2.81188 19.0234
rtibia 36.9147
rfoot -23.6787 -15.6466
rtoes 19.5074
lfemur -18.558 1.96817 -22.5376
ltibia 35.8724
lfoot -25.5524 -1.26783
ltoes 13.7265
202
root 4.82879 16.776 -25.4794 8.99155 2.05182 1.10086
lowerback -6.79353 0.0388013 -4.45665
upperback -1.05377 0.337694 1.34574
thorax 2.68632 0.1223 3.93228
lowerneck -9.86355 2.65361 -2.08791
upperneck 4.78835 3.82128 -0.083079
head 3.24552 1.84904 0.562141
rclavicle -2.11706e-014 -9.14409e-015
rhumerus -38.9956 3.0971 -88.139
rradius 28.5616
rwrist 18.3607
rhand -24.9524 -22.6164
rfingers 7.12502
rthumb 1.55756 -52.5904
lclavicle -2.11706e-014 -9.14409e-015
lhumerus -39.5218 0.496524 95.3103
lradius 35.8959
lwrist 5.06753
lhand -9.3329 7.08619
lfingers 7.12502
lthumb 16.626 36.3941
rfemur -19.5082 2.81148 18.9788
rtibia 36.9202
rfoot -23.6117 -15.5003
rtoes 19.2279
lfemur -18.4272 1.87007 -22.5737
ltibia 35.6434
lfoot -25.5627 -1.00295
ltoes 13.8793
203
root 4.83414 16.7758 -25.4814 9.01479 1.83102 1.08479
lowerback -6.88879 0.0833049 -4.41438
upperback -1.07307 0.397338 1.36012
thorax 2.71371 0.15205 3.92952
lowerneck -9.90335 2.73984 -2.04542
upperneck 4.91199 3.94088 -0.1853
head 3.29767 1.90329 0.530733
rclavicle -9.93923e-017 1.07344e-014
rhumerus -39.0875 3.20535 -88.1879
rradius 28.6043
rwrist 18.3951
rhand -24.7706 -22.5007
rfingers 7.12502
rthumb 1.73313 -52.4734
lclavicle -9.93923e-017 1.07344e-014
lhumerus -39.5885 0.466742 95.332
lradius 36.1321
lwrist 5.20686
lhand -9.46279 6.97555
lfingers 7.12502
lthumb 16.5009 36.2939
rfemur -19.5831 2.79473 18.9519
rtibia 36.94
rfoot -23.5587 -15.3414
rtoes 18.9587
lfemur -18.3032 1.77005 -22.5897
ltibia 35.4378
lfoot -25.6078 -0.745176
ltoes 13.9568
204
root 4.83915 16.7748 -25.4838 9.03242 1.63166 1.05327
lowerback -6.96362 0.119389 -4.36373
upperback -1.09348 0.443827 1.3851
thorax 2.72989 0.17559 3.93175
lowerneck -9.92568 2.8255 -1.99469
upperneck 5.00887 4.05954 -0.306475
head 3.33805 1.95669 0.490947
rclavicle -8.99501e-015 4.77083e-015
rhumerus -39.163 3.3273 -88.2286
rradius 28.647
rwrist 18.472
rhand -24.5613 -22.365
rfingers 7.12502
rthumb 1.93522 -52.3359
lclavicle -8.99501e-015 4.77083e-015
lhumerus -39.6608 0.465906 95.3465
lradius 36.3873
lwrist 5.37327
lhand -9.62952 6.85444
lfingers 7.12502
lthumb 16.3404 36.186
rfemur -19.6541 2.77018 18.9471
rtibia 36.9684
rfoot -23.5152 -15.1906
rtoes 18.6989
lfemur -18.1915 1.68074 -22.5823
ltibia 35.2569
lfoot -25.6695 -0.530986
ltoes 14.0572
205
root 4.84369 16.7731 -25.4865 9.04911 1.46427 1.00856
lowerback -7.0209 0.14382 -4.30661
upperback -1.11604 0.47317 1.41926
thorax 2.73573 0.190914 3.93819
lowerneck -9.94032 2.90854 -1.93855
upperneck 5.08798 4.17473 -0.440753
head 3.37153 2.00808 0.445352
rclavicle -1.24489e-014 -1.59028e-015
rhumerus -39.2171 3.44525 -88.2559
rradius 28.6839
rwrist 18.5872
rhand -24.3373 -22.213
rfingers 7.12502
rthumb 2.15163 -52.1819
lclavicle -1.24489e-014 -1.59028e-015
lhumerus -39.7341 0.49323 95.3517
lradius 36.6513
lwrist 5.56279
lhand -9.84005 6.75891
lfingers 7.12502
lthumb 16.1377 36.1071
rfemur -19.725 2.73915 18.9632
rtibia 37.0038
rfoot -23.485 -15.0537
rtoes 18.4834
lfemur -18.0959 1.57058 -22.554
ltibia 35.1005
lfoot -25.743 -0.333429
ltoes 14.1689
206
root 4.84761 16.7713 -25.4894 9.0654 1.33526 0.95827
lowerback -7.06229 0.153933 -4.25312
upperback -1.14089 0.482735 1.46106
thorax 2.73223 0.196595 3.95266
lowerneck -9.94441 2.99001 -1.88736
upperneck 5.14718 4.28781 -0.571109
head 3.39617 2.05872 0.401308
rclavicle -7.45443e-015 5.56597e-015
rhumerus -39.2546 3.55118 -88.2674
rradius 28.7163
rwrist 18.7234
rhand -24.0999 -22.0309
rfingers 7.12502
rthumb 2.38084 -51.9974
lclavicle -7.45443e-015 5.56597e-015
lhumerus -39.8065 0.551591 95.3462
lradius 36.9143
lwrist 5.76755
lhand -10.0816 6.67299
lfingers 7.12502
lthumb 15.905 36.0399
rfemur -19.7915 2.70197 18.9935
rtibia 37.0411
rfoot -23.4605 -14.9444
rtoes 18.2864
lfemur -18.0231 1.45263 -22.5167
ltibia 34.9693
lfoot -25.819 -0.139195
ltoes 14.2226
207
root 4.85072 16.7697 -25.4924 9.08318 1.24658 0.91013
lowerback -7.09181 0.149117 -4.21218
upperback -1.16665 0.4727 1.50756
thorax 2.72295 0.192532 3.97721
lowerneck -9.94318 3.06723 -1.8422
upperneck 5.19023 4.39517 -0.693842
head 3.41416 2.10692 0.360161
rclavicle 2.28602e-015 -3.97569e-016
rhumerus -39.273 3.63297 -88.2607
rradius 28.7419
rwrist 18.8641
rhand -23.9 -21.8424
rfingers 7.12502
rthumb 2.57397 -51.8067
lclavicle 2.28602e-015 -3.97569e-016
lhumerus -39.8693 0.633543 95.3315
lradius 37.1638
lwrist 5.98173
lhand -10.3512 6.58951
lfingers 7.12502
lthumb 15.6455 35.9769
rfemur -19.8551 2.66333 19.0297
rtibia 37.0782
rfoot -23.4399 -14.8652
rtoes 18.1195
lfemur -17.9732 1.31388 -22.4789
ltibia 34.8621
lfoot -25.8843 0.0720022
ltoes 14.2291
208
root 4.85303 16.7684 -25.4957 9.10801 1.19529 0.861883
lowerback -7.118 0.131508 -4.18156
upperback -1.19319 0.446114 1.55886
thorax 2.71255 0.18015 4.01104
lowerneck -9.92301 3.13834 -1.79115
upperneck 5.20148 4.49303 -0.821162
head 3.41792 2.15083 0.315096
rclavicle -1.28216e-014 2.78299e-015
rhumerus -39.2721 3.68282 -88.2332
rradius 28.7597
rwrist 18.9967
rhand -23.747 -21.6509
rfingers 7.12502
rthumb 2.72172 -51.6133
lclavicle -1.28216e-014 2.78299e-015
lhumerus -39.9168 0.734648 95.3089
lradius 37.3882
lwrist 6.19692
lhand -10.6264 6.47444
lfingers 7.12502
lthumb 15.3804 35.8823
rfemur -19.9212 2.62861 19.073
rtibia 37.1106
rfoot -23.4199 -14.8159
rtoes 17.9917
lfemur -17.9514 1.15333 -22.439
ltibia 34.7796
lfoot -25.9241 0.28895
ltoes 14.2634
209
root 4.85456 16.7676 -25.4992 9.14242 1.1797 0.823421
lowerback -7.14274 0.101057 -4.16904
upperback -1.22162 0.403724 1.61017
thorax 2.70084 0.159796 4.05368
lowerneck -9.8922 3.20428 -1.75208
upperneck 5.19297 4.58329 -0.926751
head 3.41212 2.192 0.278289
rclavicle 3.47873e-015 -2.18663e-014
rhumerus -39.2533 3.69951 -88.1913
rradius 28.766
rwrist 19.09
rhand -23.6819 -21.4562
rfingers 7.12502
rthumb 2.7846 -51.4177
lclavicle 3.47873e-015 -2.18663e-014
lhumerus -39.9445 0.850242 95.2764
lradius 37.5757
lwrist 6.40214
lhand -10.9583 6.41759
lfingers 7.12502
lthumb 15.0607 35.8498
rfemur -19.9935 2.59283 19.1116
rtibia 37.1394
rfoot -23.3634 -14.8259
rtoes 17.6782
lfemur -17.9589 0.976164 -22.4085
ltibia 34.7189
lfoot -25.9346 0.502913
ltoes 14.3247
210
root 4.85528 16.7674 -25.5029 9.18077 1.19021 0.788123
lowerback -7.16435 0.0618273 -4.16845
upperback -1.24999 0.350386 1.66314
thorax 2.68852 0.133892 4.10376
lowerneck -9.8372 3.26387 -1.71571
upperneck 5.15365 4.66359 -1.02362
head 3.39078 2.22914 0.243271
rclavicle -3.72721e-015 -5.56597e-015
rhumerus -39.2196 3.67934 -88.1336
rradius 28.7605
rwrist 19.1447
rhand -23.7154 -21.2712
rfingers 7.12502
rthumb 2.75221 -51.2331
lclavicle -3.72721e-015 -5.56597e-015
lhumerus -39.9497 0.978395 95.2348
lradius 37.7182
lwrist 6.58647
lhand -11.3195 6.36503
lfingers 7.12502
lthumb 14.7127 35.8229
rfemur -20.066 2.56451 19.1517
rtibia 37.164
rfoot -23.3206 -14.844
rtoes 17.4952
lfemur -17.9911 0.783715 -22.3784
ltibia 34.6786
lfoot -25.9082 0.719814
ltoes 14.4315
211
root 4.85546 16.7673 -25.5071 9.22637 1.21697 0.753516
lowerback -7.18791 0.018118 -4.17215
upperback -1.27832 0.291491 1.71627
thorax 2.67797 0.105141 4.15595
lowerneck -9.75472 3.31596 -1.68137
upperneck 5.08118 4.7321 -1.11161
head 3.35247 2.26144 0.20976
rclavicle 6.41081e-015 -1.51076e-014
rhumerus -39.1715 3.61501 -88.056
rradius 28.7424
rwrist 19.1844
rhand -23.8333 -21.1086
rfingers 7.12502
rthumb 2.63839 -51.072
lclavicle 6.41081e-015 -1.51076e-014
lhumerus -39.9292 1.10922 95.1863
lradius 37.8113
lwrist 6.74657
lhand -11.7043 6.33837
lfingers 7.12502
lthumb 14.3419 35.823
rfemur -20.1465 2.53939 19.1931
rtibia 37.1855
rfoot -23.2722 -14.8723
rtoes 17.3354
lfemur -18.0396 0.586995 -22.3474
ltibia 34.6558
lfoot -25.8696 0.945228
ltoes 14.5001
212
root 4.85514 16.7673 -25.5116 9.27596 1.25507 0.719153
lowerback -7.21004 -0.0285701 -4.17564
upperback -1.30703 0.22862 1.76755
thorax 2.66677 0.0744433 4.2057
lowerneck -9.64309 3.36096 -1.65004
upperneck 4.97732 4.78931 -1.1888
head 3.29745 2.28923 0.178574
rclavicle 1.29459e-014 -7.95139e-015
rhumerus -39.1054 3.49881 -87.9588
rradius 28.7013
rwrist 19.2237
rhand -24.0315 -20.9646
rfingers 7.12502
rthumb 2.44695 -50.9303
lclavicle 1.29459e-014 -7.95139e-015
lhumerus -39.8871 1.23947 95.128
lradius 37.8575
lwrist 6.87464
lhand -12.1045 6.35755
lfingers 7.12502
lthumb 13.9563 35.8691
rfemur -20.2298 2.51914 19.2354
rtibia 37.2021
rfoot -23.2295 -14.9
rtoes 17.2464
lfemur -18.1054 0.385341 -22.3123
ltibia 34.6501
lfoot -25.8262 1.16146
ltoes 14.5402
